<svg xmlns="http://www.w3.org/2000/svg" xmlns:xlink="http://www.w3.org/1999/xlink" version="1.1" x="0px" y="0px" viewBox="0 0 60.17 67.5" enable-background="new 0 0 60.17 54" xml:space="preserve"><path fill="#000000" d="M60.12,15.9c-0.19-1.02-0.86-1.89-1.81-2.32c-0.08-0.04-0.16-0.06-0.25-0.08l-10.2-1.7l4.97-4.97  C53.58,6.07,54,5.07,54,4s-0.42-2.07-1.17-2.83S51.07,0,50,0s-2.07,0.42-2.83,1.17L40.4,7.95l-2.88-6.01  c-0.02-0.04-0.04-0.07-0.06-0.1c-0.53-0.83-1.42-1.32-2.4-1.32c-0.76,0-1.47,0.3-2.01,0.83l-8.69,8.69  c-0.61,0.61-0.91,1.46-0.82,2.32c0.09,0.86,0.57,1.62,1.3,2.09c0.06,0.04,0.11,0.06,0.17,0.09L31.34,17L1.17,47.17  C0.42,47.93,0,48.93,0,50s0.42,2.07,1.17,2.83S2.93,54,4,54s2.07-0.42,2.83-1.17L36,23.65l0.01,11.57c0,0.06,0.01,0.13,0.02,0.19  c0.28,1.44,1.42,2.41,2.84,2.41c0.81,0,1.58-0.33,2.17-0.92l18.2-18.2C59.98,17.97,60.3,16.92,60.12,15.9z M25.85,12.72  c-0.24-0.19-0.31-0.44-0.32-0.57c-0.02-0.15-0.01-0.44,0.24-0.69l8.69-8.69c0.36-0.36,1-0.3,1.28,0.1l3.15,6.58l-6.01,6.01  L25.85,12.72z M5.41,51.41c-0.75,0.76-2.07,0.76-2.83,0C2.21,51.04,2,50.53,2,50s0.21-1.04,0.59-1.41l46-46C48.96,2.21,49.47,2,50,2  s1.04,0.21,1.41,0.59S52,3.47,52,4s-0.21,1.04-0.59,1.41L5.41,51.41z M57.83,17.29l-18.2,18.2c-0.21,0.21-0.48,0.33-0.76,0.33  c-0.16,0-0.69-0.05-0.86-0.71L38,22.15c0-0.14-0.03-0.28-0.09-0.41l8.21-8.21l11.46,1.91c0.3,0.17,0.5,0.46,0.57,0.81  C58.22,16.64,58.1,17.01,57.83,17.29z"/><text x="0" y="69" fill="#000000" font-size="5px" font-weight="bold" font-family="'Helvetica Neue', Helvetica, Arial-Unicode, Arial, Sans-serif">Created by Ben Davis</text><text x="0" y="74" fill="#000000" font-size="5px" font-weight="bold" font-family="'Helvetica Neue', Helvetica, Arial-Unicode, Arial, Sans-serif">from the Noun Project</text></svg>